<svg xmlns="http://www.w3.org/2000/svg" width="14" height="14" viewBox="0 0 14 14" fill="none">
  <path d="M0.79578 1.79491C0.819711 1.79486 0.843642 1.79479 0.867572 1.7947C0.93305 1.79452 0.998525 1.79461 1.064 1.79475C1.13473 1.79485 1.20545 1.79469 1.27618 1.79457C1.41461 1.79438 1.55305 1.79442 1.69149 1.79455C1.80401 1.79465 1.91654 1.79466 2.02907 1.79461C2.04509 1.79461 2.06112 1.7946 2.07763 1.79459C2.11019 1.79458 2.14274 1.79456 2.1753 1.79455C2.48047 1.79442 2.78563 1.79457 3.0908 1.7948C3.35256 1.795 3.61431 1.79496 3.87607 1.79476C4.18016 1.79453 4.48424 1.79444 4.78833 1.79457C4.82077 1.79458 4.8532 1.7946 4.88564 1.79461C4.90159 1.79462 4.91755 1.79463 4.93399 1.79463C5.04637 1.79467 5.15874 1.79461 5.27111 1.7945C5.40808 1.79438 5.54505 1.79441 5.68202 1.79465C5.75189 1.79476 5.82175 1.79481 5.89162 1.79466C5.95561 1.79453 6.01961 1.7946 6.0836 1.79484C6.10671 1.79488 6.12982 1.79486 6.15293 1.79475C6.35324 1.7939 6.48805 1.82131 6.64678 1.9461C6.65699 1.95357 6.66721 1.96104 6.67773 1.96874C6.79297 2.05922 6.87794 2.19646 6.90892 2.33932C6.93326 2.57077 6.89972 2.77147 6.75305 2.95867C6.65825 3.06072 6.54583 3.1275 6.41376 3.16945C6.40029 3.17442 6.38682 3.17939 6.37294 3.18451C6.28839 3.2083 6.20031 3.20247 6.11323 3.20208C6.09295 3.20209 6.07267 3.20212 6.05238 3.20215C5.99668 3.20222 5.94097 3.2021 5.88527 3.20196C5.82426 3.20183 5.76326 3.20187 5.70225 3.20189C5.58386 3.20191 5.46547 3.20177 5.34708 3.20159C5.21012 3.20138 5.07316 3.20135 4.9362 3.20133C4.57462 3.20118 4.21305 3.20077 3.85148 3.20039C3.04377 3.19979 2.23607 3.19919 1.40389 3.19857C1.40389 6.29846 1.40389 9.39835 1.40389 12.5922C4.50375 12.5922 7.60361 12.5922 10.7974 12.5922C10.7957 10.9957 10.7957 10.9957 10.7935 9.39927C10.7933 9.09049 10.7933 9.09049 10.7932 8.94594C10.7932 8.84499 10.793 8.74404 10.7928 8.64308C10.7925 8.52656 10.7924 8.41005 10.7924 8.29353C10.7925 8.23396 10.7924 8.1744 10.7922 8.11484C10.792 8.06086 10.792 8.00689 10.7921 7.95291C10.7921 7.92439 10.792 7.89587 10.7918 7.86735C10.7927 7.68134 10.8187 7.51702 10.9285 7.3638C10.9415 7.34442 10.9415 7.34442 10.9549 7.32466C11.0753 7.19736 11.2474 7.09248 11.4236 7.07252C11.4335 7.07139 11.4433 7.07027 11.4534 7.06911C11.6525 7.0571 11.8508 7.15016 11.9978 7.27801C12.1424 7.42286 12.2083 7.60587 12.2089 7.80698C12.2087 7.82897 12.2084 7.85095 12.2082 7.87294C12.2082 7.89693 12.2084 7.92093 12.2085 7.94493C12.2089 8.01018 12.2086 8.07542 12.2082 8.14068C12.2079 8.21132 12.2081 8.28195 12.2083 8.35258C12.2086 8.49067 12.2084 8.62874 12.2079 8.76683C12.2074 8.92777 12.2074 9.0887 12.2075 9.24964C12.2075 9.53683 12.2071 9.82401 12.2064 10.1112C12.2057 10.3896 12.2054 10.6681 12.2055 10.9465C12.2056 11.2986 12.2054 11.6507 12.2049 12.0027C12.2048 12.1148 12.2048 12.2269 12.2048 12.339C12.2048 12.4756 12.2046 12.6122 12.2041 12.7489C12.2039 12.8185 12.2037 12.8882 12.2038 12.9578C12.2039 13.0217 12.2037 13.0855 12.2033 13.1493C12.2033 13.1723 12.2033 13.1954 12.2034 13.2184C12.2044 13.4483 12.1411 13.6477 11.9771 13.8155C11.9347 13.847 11.8908 13.8751 11.846 13.9029C11.8346 13.911 11.8232 13.9191 11.8114 13.9275C11.6867 13.9898 11.5578 13.9966 11.4209 13.9959C11.4021 13.9959 11.3832 13.996 11.3639 13.9961C11.3118 13.9963 11.2598 13.9962 11.2077 13.9961C11.1511 13.996 11.0944 13.9962 11.0377 13.9963C10.9384 13.9965 10.8391 13.9965 10.7398 13.9965C10.5922 13.9964 10.4445 13.9965 10.2969 13.9967C10.0178 13.9971 9.73877 13.9971 9.45973 13.9971C9.24426 13.9971 9.0288 13.9972 8.81334 13.9973C8.78238 13.9973 8.75142 13.9973 8.72047 13.9973C8.7051 13.9973 8.68974 13.9973 8.67391 13.9973C8.65851 13.9973 8.64312 13.9973 8.62725 13.9974C8.61183 13.9974 8.59641 13.9974 8.58053 13.9974C8.14684 13.9976 7.71315 13.9977 7.27947 13.9976C7.26312 13.9976 7.24677 13.9976 7.22993 13.9976C7.14707 13.9976 7.06421 13.9976 6.98135 13.9976C6.96489 13.9976 6.94844 13.9976 6.93148 13.9976C6.8982 13.9976 6.86493 13.9976 6.83165 13.9976C6.31374 13.9975 5.79583 13.9977 5.27792 13.9982C4.69605 13.9987 4.11418 13.999 3.53231 13.9989C3.47027 13.9989 3.40824 13.9989 3.34621 13.9989C3.33094 13.9989 3.31566 13.9989 3.29993 13.9989C3.06929 13.9989 2.83866 13.999 2.60802 13.9993C2.34577 13.9996 2.08351 13.9997 1.82125 13.9994C1.67448 13.9993 1.52772 13.9993 1.38095 13.9996C1.2829 13.9998 1.18485 13.9998 1.0868 13.9995C1.03094 13.9994 0.975092 13.9993 0.919235 13.9996C0.859001 13.9999 0.798782 13.9997 0.738548 13.9994C0.721296 13.9995 0.704043 13.9997 0.686268 13.9999C0.518878 13.9981 0.368486 13.9409 0.246079 13.8246C0.234064 13.812 0.222049 13.7994 0.20967 13.7864C0.195553 13.7741 0.181435 13.7618 0.16689 13.7491C0.104044 13.6866 0.069673 13.6047 0.0349072 13.5242C0.0297881 13.5127 0.024669 13.5011 0.0193948 13.4892C-0.000934379 13.411 0.00177831 13.3347 0.00207395 13.2542C0.00202725 13.2355 0.00198056 13.2168 0.00193245 13.1976C0.00180672 13.1456 0.00186268 13.0936 0.00194778 13.0416C0.00200843 12.985 0.00190078 12.9285 0.0018145 12.872C0.00168673 12.7729 0.00166785 12.6737 0.00171989 12.5746C0.00179708 12.4272 0.00170852 12.2798 0.00158762 12.1324C0.00136541 11.8539 0.00134087 11.5753 0.00137678 11.2968C0.00140345 11.0817 0.00137786 10.8666 0.00131523 10.6515C0.00130645 10.6206 0.00129774 10.5897 0.001289 10.5588C0.00127579 10.5123 0.00126252 10.4657 0.00124917 10.4192C0.00112636 9.98637 0.00106333 9.55354 0.00112406 9.12071C0.00112634 9.10438 0.0011286 9.08806 0.00113095 9.07124C0.00114268 8.98849 0.00115501 8.90575 0.00116756 8.82301C0.00117005 8.80658 0.00117255 8.79014 0.00117511 8.77321C0.00118016 8.73998 0.00118523 8.70675 0.00119034 8.67351C0.00126835 8.15649 0.0011529 7.63947 0.000884002 7.12245C0.000582348 6.54176 0.000426075 5.96108 0.000484612 5.38039C0.00049037 5.31848 0.000495654 5.25657 0.000500612 5.19466C0.000501934 5.17942 0.000503251 5.16417 0.000504613 5.14846C0.0005216 4.91825 0.000424726 4.68803 0.000270334 4.45781C9.49207e-05 4.19597 7.19372e-05 3.93414 0.000252667 3.67231C0.000349289 3.52576 0.000325276 3.37922 0.000127611 3.23268C7.6584e-06 3.13478 4.66557e-05 3.03688 0.000214612 2.93897C0.000305844 2.8832 0.000328784 2.82743 0.000158389 2.77166C-2.36636e-05 2.71152 0.000133562 2.65138 0.000322612 2.59124C0.000216162 2.57401 0.000109676 2.55678 0 2.53903C0.00136577 2.32968 0.0545122 2.15764 0.196643 2.00219C0.241102 1.95874 0.28941 1.92272 0.340743 1.88784C0.352157 1.87973 0.363571 1.87162 0.375331 1.86326C0.511172 1.79534 0.647059 1.79423 0.79578 1.79491Z" fill="#74672B"/>
  <path d="M8.40575 0.00698323C8.42737 0.00692465 8.449 0.00685999 8.47063 0.00678983C8.52974 0.00661677 8.58885 0.00653359 8.64796 0.00646679C8.71183 0.0063796 8.77571 0.00621064 8.83958 0.00605478C8.99362 0.00569878 9.14765 0.00548483 9.30169 0.00529659C9.34522 0.00524247 9.38875 0.00518461 9.43227 0.00512543C9.70286 0.004758 9.97345 0.00443698 10.244 0.00425556C10.3066 0.0042129 10.3692 0.00416977 10.4318 0.00412587C10.4473 0.004115 10.4629 0.00410414 10.4789 0.00409294C10.731 0.00390855 10.983 0.00342445 11.2351 0.00281802C11.4942 0.00219996 11.7532 0.00185697 12.0122 0.00178089C12.1576 0.00173122 12.3029 0.00156059 12.4483 0.00108034C12.572 0.000672155 12.6957 0.000512531 12.8195 0.000675399C12.8826 0.00075082 12.9456 0.000709644 13.0087 0.000348218C13.0666 1.96186e-05 13.1244 3.2203e-05 13.1822 0.000307496C13.2031 0.00034813 13.2239 0.000267546 13.2447 4.80734e-05C13.4404 -0.00188591 13.5828 0.0545324 13.7391 0.169425C13.7517 0.177836 13.7643 0.186246 13.7773 0.194912C13.9288 0.338438 13.9822 0.509433 13.988 0.711991C13.9886 0.767532 13.9887 0.823063 13.9886 0.878606C13.9887 0.900084 13.9887 0.921562 13.9887 0.943041C13.9888 1.00174 13.9888 1.06044 13.9888 1.11913C13.9888 1.18256 13.9889 1.24599 13.9889 1.30942C13.9891 1.43354 13.9891 1.55766 13.9891 1.68179C13.9891 1.78268 13.9892 1.88357 13.9892 1.98446C13.9893 2.27065 13.9894 2.55684 13.9894 2.84303C13.9894 2.86615 13.9894 2.86615 13.9894 2.88973C13.9894 2.91288 13.9894 2.91288 13.9894 2.9365C13.9894 3.18677 13.9895 3.43704 13.9897 3.68731C13.9899 3.94443 13.99 4.20154 13.99 4.45866C13.99 4.60295 13.99 4.74725 13.9902 4.89155C13.9903 5.01436 13.9904 5.13716 13.9903 5.25997C13.9902 5.3226 13.9902 5.38524 13.9903 5.44788C13.9905 5.50525 13.9904 5.56263 13.9903 5.62C13.9903 5.64072 13.9903 5.66144 13.9904 5.68215C13.9912 5.90465 13.9492 6.07623 13.8048 6.25028C13.6454 6.40674 13.4641 6.46121 13.2439 6.46095C13.0741 6.45244 12.914 6.39316 12.7925 6.27162C12.6397 6.09079 12.5865 5.92908 12.5863 5.69307C12.5862 5.67907 12.5861 5.66506 12.5861 5.65064C12.5858 5.60386 12.5857 5.55708 12.5856 5.5103C12.5854 5.47671 12.5853 5.44312 12.5851 5.40953C12.5848 5.31842 12.5844 5.22732 12.5842 5.13622C12.5838 5.04097 12.5834 4.94573 12.5831 4.85049C12.5824 4.69066 12.5818 4.53083 12.5813 4.371C12.5807 4.20641 12.5801 4.04181 12.5794 3.87721C12.5794 3.86706 12.5794 3.85691 12.5793 3.84645C12.5791 3.79551 12.5789 3.74458 12.5787 3.69365C12.5771 3.27136 12.5755 2.84908 12.574 2.4268C12.5678 2.43303 12.5616 2.43926 12.5552 2.44568C12.4045 2.59707 12.2536 2.74839 12.1027 2.89962C12.0297 2.97275 11.9568 3.04591 11.8839 3.11914C11.8136 3.18974 11.7432 3.26027 11.6728 3.33075C11.6459 3.35772 11.619 3.38471 11.5922 3.41173C11.5547 3.44943 11.5171 3.48704 11.4795 3.52462C11.4683 3.53593 11.4571 3.54723 11.4456 3.55888C11.4354 3.56905 11.4251 3.57922 11.4146 3.5897C11.4057 3.59861 11.3969 3.60753 11.3877 3.61671C11.3652 3.63559 11.3652 3.63559 11.3361 3.63559C11.3308 3.64798 11.3308 3.64798 11.3254 3.66063C11.3034 3.70024 11.2773 3.72721 11.2453 3.75928C11.2326 3.7721 11.2198 3.78493 11.2067 3.79814C11.1928 3.812 11.1789 3.82586 11.165 3.83971C11.1507 3.85399 11.1365 3.86827 11.1222 3.88256C11.0924 3.91243 11.0625 3.94224 11.0326 3.97202C10.9942 4.01025 10.9559 4.04861 10.9177 4.08701C10.8883 4.1165 10.8589 4.14592 10.8294 4.17531C10.8153 4.18944 10.8011 4.20358 10.787 4.21775C10.7674 4.23749 10.7476 4.25712 10.7278 4.27675C10.7166 4.28795 10.7054 4.29916 10.6938 4.31071C10.6662 4.33465 10.6662 4.33465 10.6371 4.33465C10.6371 4.34426 10.6371 4.35387 10.6371 4.36377C10.6274 4.36377 10.6178 4.36377 10.6079 4.36377C10.6049 4.37158 10.6018 4.37938 10.5986 4.38742C10.5712 4.43528 10.5336 4.47121 10.4948 4.50976C10.4861 4.51849 10.4774 4.52722 10.4684 4.53622C10.4393 4.56549 10.41 4.59466 10.3808 4.62383C10.3599 4.64478 10.339 4.66574 10.3181 4.6867C10.2613 4.74363 10.2044 4.80048 10.1474 4.8573C10.088 4.91669 10.0286 4.97616 9.96917 5.03561C9.86942 5.13542 9.7696 5.23516 9.66975 5.33488C9.55416 5.45031 9.43868 5.56585 9.32325 5.68144C9.22425 5.78057 9.12521 5.87963 9.02611 5.97865C8.96687 6.03785 8.90765 6.09706 8.84848 6.15633C8.79289 6.212 8.73723 6.26761 8.68151 6.32315C8.66102 6.34361 8.64056 6.36408 8.62012 6.38459C8.59232 6.41246 8.56445 6.44024 8.53654 6.468C8.52837 6.47623 8.5202 6.48447 8.51179 6.49295C8.45584 6.54833 8.45584 6.54833 8.42339 6.54833C8.41951 6.55693 8.41564 6.56553 8.41166 6.57439C8.39379 6.60745 8.3754 6.62911 8.34893 6.65561C8.33497 6.6697 8.33497 6.6697 8.32072 6.68407C8.31052 6.69421 8.30032 6.70435 8.28981 6.7148C8.27906 6.72561 8.2683 6.73641 8.25723 6.74754C8.22166 6.78323 8.18599 6.81882 8.15032 6.85439C8.12561 6.87912 8.10091 6.90385 8.07621 6.92859C8.02444 6.9804 7.97263 7.03215 7.92077 7.08387C7.85416 7.15031 7.78769 7.21689 7.72125 7.2835C7.67028 7.33458 7.61924 7.38558 7.56818 7.43657C7.54363 7.4611 7.5191 7.48565 7.4946 7.51022C7.46042 7.54447 7.42616 7.57862 7.39187 7.61275C7.37657 7.62813 7.37657 7.62813 7.36097 7.64383C7.35166 7.65306 7.34234 7.66229 7.33275 7.6718C7.32465 7.67988 7.31656 7.68797 7.30821 7.6963C7.28743 7.71343 7.28743 7.71343 7.2583 7.71343C7.25471 7.72174 7.25113 7.73005 7.24743 7.73861C7.22613 7.77719 7.20112 7.80351 7.17001 7.83471C7.1584 7.84635 7.1468 7.85799 7.13485 7.86999C7.12272 7.882 7.11059 7.89402 7.0981 7.90639C7.08597 7.91864 7.07384 7.93088 7.06135 7.94349C7.04975 7.95505 7.03814 7.96662 7.02619 7.97853C7.01555 7.98914 7.0049 7.99975 6.99393 8.01069C6.96703 8.03383 6.96703 8.03383 6.9379 8.03383C6.93437 8.04208 6.93084 8.05034 6.92721 8.05884C6.90518 8.09855 6.87889 8.12574 6.84682 8.1579C6.83436 8.1704 6.82191 8.18289 6.80907 8.19576C6.79602 8.20871 6.78296 8.22165 6.76951 8.23499C6.75684 8.24776 6.74418 8.26054 6.73114 8.2737C6.53252 8.47172 6.53252 8.47172 6.4036 8.52626C6.39093 8.53176 6.37825 8.53726 6.3652 8.54293C6.35234 8.54794 6.33948 8.55296 6.32623 8.55812C6.31279 8.56347 6.29934 8.56882 6.2855 8.57433C6.11121 8.62258 5.90874 8.59269 5.75074 8.50976C5.71722 8.4889 5.68692 8.46651 5.6563 8.44161C5.64647 8.43391 5.63663 8.42622 5.62649 8.41829C5.5196 8.32424 5.45327 8.18203 5.40872 8.04839C5.39356 7.81049 5.42033 7.60923 5.57933 7.42184C5.68947 7.29798 5.80728 7.18181 5.92456 7.06476C5.94894 7.04037 5.97333 7.01597 5.99771 6.99157C6.05748 6.93177 6.11728 6.872 6.1771 6.81225C6.24881 6.74062 6.32048 6.66895 6.39214 6.59727C6.52437 6.46502 6.65664 6.3328 6.78892 6.2006C6.91984 6.06977 7.05074 5.93892 7.18163 5.80805C7.18977 5.7999 7.19792 5.79176 7.20632 5.78336C7.2477 5.74199 7.28908 5.70061 7.33046 5.65923C7.62331 5.36641 7.9162 5.07362 8.2091 4.78085C8.4936 4.49649 8.77808 4.21211 9.06254 3.92771C9.07131 3.91894 9.08008 3.91016 9.08912 3.90113C9.17723 3.81304 9.26534 3.72495 9.35345 3.63686C9.53292 3.45742 9.7124 3.27798 9.89187 3.09855C9.90013 3.0903 9.90838 3.08205 9.91688 3.07355C10.4676 2.52297 11.0184 1.97243 11.5691 1.4219C11.5517 1.42188 11.5342 1.42186 11.5163 1.42184C11.1016 1.42132 10.6869 1.4205 10.2723 1.41931C10.2212 1.41917 10.17 1.41902 10.1189 1.41888C10.1087 1.41885 10.0985 1.41883 10.0881 1.4188C9.92363 1.41835 9.75921 1.4181 9.59478 1.41793C9.42585 1.41774 9.25691 1.41734 9.08798 1.41674C8.99319 1.41641 8.89839 1.41618 8.8036 1.4162C8.71424 1.41621 8.62489 1.41595 8.53554 1.41548C8.50287 1.41536 8.4702 1.41533 8.43753 1.41541C8.16044 1.41601 7.9399 1.39669 7.72888 1.20072C7.57989 1.04497 7.52602 0.850749 7.52589 0.637892C7.53331 0.471859 7.61688 0.316992 7.73224 0.200259C7.94256 0.0190288 8.13842 0.00706238 8.40575 0.00698323Z" fill="#74672B"/>
</svg>
