<svg width="86" height="32" viewBox="0 0 86 32" fill="none" xmlns="http://www.w3.org/2000/svg">
<path d="M5.87427 8.49017H0.881158C0.70493 11.7798 3.20638 14.4134 4.47913 15.319C5.24279 16.0827 8.41978 17.3505 9.91281 17.889C10.9702 18.3002 11.6751 18.7457 11.8954 18.917C13.4227 19.5632 13.9514 21.7807 14.0248 22.8087H19.0179C18.9592 16.4058 14.2451 13.5812 11.8954 12.9693C7.7834 11.6182 6.16798 9.42026 5.87427 8.49017Z" fill="#74672B"/>
<path d="M12.1891 26.9207C7.54841 28.8005 4.67492 25.8438 3.81826 24.1304L0 26.4067C1.82102 30.225 5.60501 31.6201 7.26938 31.8404C10.4415 32.4278 13.6332 31.253 14.8325 30.5921L12.1891 26.9207Z" fill="#74672B"/>
<path d="M6.75544 5.55303L3.45117 2.32218C5.27219 0.0899591 9.15409 -0.125431 10.8674 0.0459021C15.0381 0.280873 17.3046 3.08094 17.9165 4.45161L14.6857 7.24189C13.1584 4.89218 11.1122 4.40266 10.28 4.45161C8.04777 4.45161 7.0002 5.18589 6.75544 5.55303Z" fill="#74672B"/>
<path d="M40.0178 5.4717H26.875V13.5142H40.0178V18.4858H26.875V26.5283H40.0178V31.5H22.0178V0.5H40.0178V5.4717Z" fill="#74672B"/>
<path d="M61.0178 5.4717H47.875V13.5142H61.0178V18.4858H47.875V26.5283H61.0178V31.5H43.0178V0.5H61.0178V5.4717Z" fill="#74672B"/>
<path d="M72.0603 31.5V9.85849L77.032 14.3641V31.5H72.0603Z" fill="#74672B"/>
<path d="M77.1782 5.4717L72.0603 0.499998H85.2207V5.4717H77.1782Z" fill="#74672B"/>
<path d="M64.0178 0.499996H72.0603V5.47169H64.0178V0.499996Z" fill="#74672B"/>
</svg>
