<svg preserveAspectRatio="none" width="100%" height="100%" overflow="visible" style="display: block;" viewBox="0 0 18.6937 20" fill="none" xmlns="http://www.w3.org/2000/svg">
<g id="Info-icon">
<path id="Vector" d="M15.1148 0H16.9026L16.9014 1.77961C16.7934 1.76319 16.4422 1.77049 16.3135 1.7705L15.1155 1.7712C15.1368 1.23457 15.1156 0.548487 15.1148 0Z" fill="var(--fill-0, #74672B)"/>
<path id="Vector_2" d="M14.6819 0H15.1148C15.1156 0.548487 15.1369 1.23457 15.1155 1.7712L16.3135 1.7705C16.4423 1.77049 16.7934 1.76319 16.9015 1.77961C16.8189 1.80409 16.5051 1.79074 16.3985 1.79582C15.8647 1.82127 15.2053 1.75642 14.6857 1.78351C14.678 1.19306 14.6842 0.592021 14.6819 0Z" fill="var(--fill-0, #74672B)"/>
<path id="Vector_3" d="M16.9026 0H17.3453L17.3431 1.77455C17.1987 1.77737 17.0449 1.78297 16.9015 1.77961L16.9026 0Z" fill="var(--fill-0, #74672B)"/>
<path id="Vector_4" d="M0.018531 12.0031L17.7828 12.0035L17.7805 12.4479C17.8083 12.6308 17.7937 12.9588 17.7971 13.1531C17.8059 13.656 17.7845 14.1624 17.7781 14.6639L0.0166413 14.6662L0.0156704 14.2265C-0.00455424 14.1298 0.000604516 13.6948 0.000550345 13.5753C-0.00172901 13.0512 0.00426521 12.5271 0.018531 12.0031Z" fill="var(--fill-0, #74672B)"/>
<path id="Vector_5" d="M17.7805 12.4479C17.8083 12.6308 17.7937 12.9588 17.7971 13.1531C17.8058 13.656 17.7845 14.1624 17.7781 14.6639L0.0166022 14.6662L0.0156313 14.2265C0.450928 14.1943 1.34117 14.2234 1.80233 14.224L5.35365 14.2245L13.3483 14.2243C14.8175 14.2242 16.3068 14.2361 17.7746 14.2192C17.7734 13.7058 17.7473 12.9365 17.7805 12.4479Z" fill="var(--fill-0, #74672B)"/>
<path id="Vector_6" d="M0.018531 12.0031L17.7828 12.0035L17.7805 12.4479C15.5971 12.4206 13.3615 12.444 11.1749 12.4439L0.0252273 12.4449L0.0243252 13.565C0.0244877 13.754 0.0331385 14.0479 0.0156704 14.2265C-0.00455424 14.1298 0.000604516 13.6948 0.000550345 13.5753C-0.00172901 13.0512 0.00426521 12.5271 0.018531 12.0031Z" fill="var(--fill-0, #74672B)"/>
<path id="Vector_7" d="M0.0185643 17.3369L17.7824 17.3373L17.7805 17.7817C17.8007 17.9149 17.7949 18.0576 17.7967 18.1926C17.8047 18.7952 17.7892 19.3955 17.7781 19.9977L0.0165703 20L0.0156932 19.5603C-0.00469186 19.4624 0.000637807 19.0216 0.000604471 18.9014C-0.00181448 18.3799 0.00417351 17.8583 0.0185643 17.3369Z" fill="var(--fill-0, #74672B)"/>
<path id="Vector_8" d="M17.7805 17.7817C17.8008 17.9149 17.795 18.0576 17.7968 18.1926C17.8048 18.7952 17.7892 19.3955 17.7782 19.9977L0.0166226 20L0.0157454 19.5603C0.451577 19.5281 1.3408 19.5572 1.80242 19.5578L5.35374 19.5583L13.3484 19.5581C14.8176 19.558 16.3068 19.5699 17.7747 19.553C17.7735 19.0371 17.7474 18.2724 17.7805 17.7817Z" fill="var(--fill-0, #74672B)"/>
<path id="Vector_9" d="M0.0185643 17.3369L17.7824 17.3373L17.7805 17.7817C15.5931 17.755 13.3562 17.7778 11.1658 17.7777L0.0252418 17.7786L0.0243127 18.9045C0.0244731 19.091 0.0329258 19.3835 0.0156932 19.5603C-0.00469186 19.4624 0.000637807 19.0216 0.000604471 18.9014C-0.00181448 18.3799 0.00417351 17.8583 0.0185643 17.3369Z" fill="var(--fill-0, #74672B)"/>
<path id="Vector_10" d="M16.9004 3.11617C17.021 3.11528 17.2371 3.11978 17.3499 3.10801C17.3475 4.88292 17.3708 6.67044 17.3542 8.44432C17.7556 8.45815 18.2807 8.45878 18.6835 8.44348C18.6835 9.33843 18.7104 10.2151 18.6766 11.1137L15.0916 11.1106L13.9881 11.1105C13.8043 11.1104 13.5279 11.1025 13.3523 11.1187L13.3488 10.6723L13.3497 8.89712L13.3565 8.87531C13.3408 8.73236 13.3504 8.5871 13.3553 8.44309C13.6682 8.47259 14.3257 8.44763 14.6745 8.45192L14.6808 8.44436C14.6948 7.57098 14.6868 6.65713 14.6813 5.7825C14.4991 5.76337 13.5455 5.77233 13.3521 5.78466L13.3481 5.33875C13.2882 5.10092 13.3467 3.38922 13.3555 3.10923C13.5999 3.13338 14.2512 3.11667 14.5278 3.11674L16.9004 3.11617Z" fill="var(--fill-0, #74672B)"/>
<path id="Vector_11" d="M16.9004 3.11617C17.021 3.11528 17.2371 3.11978 17.3499 3.10801C17.3475 4.88292 17.3708 6.67044 17.3542 8.44432L17.3386 8.44382C17.1896 8.45103 17.0598 8.44038 16.902 8.45474L16.9006 3.54981C15.7431 3.53275 14.5162 3.54281 13.3579 3.55029C13.3587 3.97506 13.3866 4.94793 13.3481 5.33875C13.2882 5.10092 13.3467 3.38922 13.3555 3.10923C13.5999 3.13338 14.2512 3.11667 14.5278 3.11674L16.9004 3.11617Z" fill="var(--fill-0, #74672B)"/>
<path id="Vector_12" d="M16.9005 3.11617C17.021 3.11528 17.2372 3.11978 17.35 3.10801C17.3475 4.88292 17.3709 6.67044 17.3543 8.44432L17.3386 8.44382C17.3193 7.92227 17.3352 7.29097 17.3352 6.76218L17.336 3.55875L16.8975 3.54777L16.9005 3.11617Z" fill="var(--fill-0, #74672B)"/>
<path id="Vector_13" d="M17.3543 8.44425C17.7557 8.45808 18.2808 8.45871 18.6836 8.44341C18.6835 9.33836 18.7105 10.2151 18.6767 11.1136L15.0916 11.1106L13.9881 11.1104C13.8044 11.1103 13.528 11.1024 13.3523 11.1186L13.3489 10.6722C15.117 10.653 16.9008 10.6753 18.671 10.6683C18.6933 10.1291 18.6726 9.43983 18.6706 8.8931C18.2402 8.87251 17.774 8.88095 17.3406 8.88124C17.3445 8.7434 17.3395 8.58341 17.3386 8.44375L17.3543 8.44425Z" fill="var(--fill-0, #74672B)"/>
<path id="Vector_14" d="M14.6813 5.78246C14.8368 5.77777 14.9513 5.78131 15.1068 5.79031L15.107 8.45262C14.9646 8.44228 14.8237 8.44422 14.6809 8.44432C14.6949 7.57094 14.6868 6.65709 14.6813 5.78246Z" fill="var(--fill-0, #74672B)"/>
<path id="Vector_15" d="M13.3481 5.33867C13.7935 5.33438 14.2389 5.33405 14.6843 5.33765C14.6805 5.48587 14.6795 5.63416 14.6813 5.78242C14.4991 5.76329 13.5455 5.77225 13.3521 5.78459L13.3481 5.33867Z" fill="var(--fill-0, #74672B)"/>
<path id="Vector_16" d="M13.3553 8.44307C13.6682 8.47257 14.3257 8.44761 14.6745 8.45191C14.6857 8.59092 14.6843 8.73522 14.6856 8.875L13.3565 8.8753C13.3408 8.73235 13.3504 8.58708 13.3553 8.44307Z" fill="var(--fill-0, #74672B)"/>
<path id="Vector_17" d="M14.6843 5.33768L15.1205 5.33609C15.1145 5.50369 15.114 5.67189 15.1213 5.83939C15.1655 6.84653 15.0933 7.87893 15.113 8.88195C14.5474 8.88824 13.906 8.87732 13.3497 8.89707L13.3566 8.87526L14.6857 8.87497C14.6844 8.73518 14.6857 8.59088 14.6745 8.45187L14.6809 8.44431C14.8236 8.4442 14.9645 8.44226 15.107 8.4526L15.1068 5.7903C14.9513 5.7813 14.8368 5.77776 14.6813 5.78244C14.6796 5.63418 14.6806 5.4859 14.6843 5.33768Z" fill="var(--fill-0, #74672B)"/>
<path id="Vector_18" d="M16.902 8.45467C17.0598 8.44032 17.1897 8.45097 17.3386 8.44376C17.3395 8.58341 17.3444 8.74341 17.3406 8.88125L16.902 8.88363L16.902 8.45467Z" fill="var(--fill-0, #74672B)"/>
<path id="Vector_19" d="M0.0185742 6.66941L11.5645 6.6692L11.5648 7.11985C11.5654 7.70229 11.5755 8.31109 11.5659 8.8912L11.5647 9.33176L0.0166823 9.33249L0.0156802 8.89278C-0.00469439 8.7954 0.000639322 8.35365 0.000605986 8.23387C-0.00181088 7.71233 0.00417928 7.19077 0.0185742 6.66941Z" fill="var(--fill-0, #74672B)"/>
<path id="Vector_20" d="M0.0185742 6.66941L11.5645 6.6692L11.5648 7.11985C10.2308 7.07703 8.72091 7.1103 7.37138 7.11018L0.0252518 7.11114L0.0243184 8.23694C0.0244809 8.42335 0.03294 8.71614 0.0156802 8.89278C-0.00469439 8.7954 0.000639322 8.35366 0.000605986 8.23387C-0.00181088 7.71233 0.00417928 7.19077 0.0185742 6.66941Z" fill="var(--fill-0, #74672B)"/>
<path id="Vector_21" d="M11.5658 8.89114L11.5646 9.3317L0.0166334 9.33243L0.0156313 8.89272C0.434633 8.86776 1.02937 8.88954 1.4668 8.88972L4.29795 8.8901L9.00074 8.88977C9.84879 8.88943 10.7203 8.8786 11.5658 8.89114Z" fill="var(--fill-0, #74672B)"/>
</g>
</svg>
