<svg xmlns="http://www.w3.org/2000/svg" width="28" height="28" viewBox="0 0 28 28" fill="none">
  <path d="M21.1658 0.00564265C21.937 0.00553465 23.2025 -0.033543 23.9168 0.0954864C24.839 0.265128 25.6933 0.694978 26.3797 1.33377C27.3621 2.23367 27.9412 3.49148 27.9851 4.82303C28.0068 5.37932 27.9978 5.95319 27.9978 6.5115V22.449C27.9977 22.8792 27.9968 23.4158 27.9226 23.8386C27.7606 24.763 27.3328 25.671 26.6951 26.3601C25.8791 27.2415 24.8056 27.8231 23.6082 27.9656C23.4188 27.9883 23.2278 27.9922 23.0369 27.9988C21.5815 28.0168 20.0949 28.0017 18.6375 28.0017H6.53103C5.8355 28.0017 4.75473 28.04 4.1033 27.9217C3.17114 27.7512 2.30706 27.317 1.61404 26.6707C0.646018 25.7823 0.0713709 24.5448 0.0163844 23.2322C-0.00712195 22.6679 0.00149791 22.0853 0.00173597 21.5193V5.63064C0.00175159 5.14852 -0.000658573 4.61434 0.0827907 4.13943C0.247952 3.19693 0.681677 2.32198 1.33181 1.6199C2.06033 0.824386 3.02949 0.288522 4.0906 0.0945098C4.39845 0.040447 4.67245 0.0259807 4.98318 0.0134551L4.99783 0.0124786C5.48274 -0.00581439 6.02662 0.0055265 6.51541 0.00564265H21.1658ZM6.32303 2.00564C5.91625 2.00545 5.39157 1.97876 4.99685 2.01248C4.66208 2.02852 4.37223 2.0527 4.04861 2.16678C3.15101 2.48329 2.4759 3.12863 2.17068 4.03396C2.02738 4.4592 2.00441 4.82776 2.00174 5.23416V11.9119L2.00271 19.3289V21.6902C2.00227 22.1617 1.98862 22.7098 2.01541 23.1756C2.05868 23.9706 2.4173 24.7158 3.0115 25.2459C3.8302 25.9782 4.64703 26.0019 5.67068 26.0017L6.99978 26.0008H21.6101C22.0395 26.0009 22.5728 26.015 22.9969 25.9929C23.0104 25.9922 23.0241 25.9911 23.0379 25.99C23.8501 25.9631 24.5958 25.6716 25.1619 25.074C25.5696 24.6438 25.8712 24.059 25.9558 23.4715C25.9997 23.1664 25.9977 22.7481 25.9978 22.4353V16.8924L25.9969 9.03299V6.47342C25.997 5.98002 25.998 5.49449 25.991 5.00174C25.9794 4.17786 25.6712 3.40738 25.0662 2.83767C24.6531 2.4488 24.0613 2.13763 23.4949 2.05349C23.1272 1.99889 22.7177 2.00566 22.3426 2.00564L20.991 2.00662H8.76638L6.32303 2.00564Z" fill="#CECAB5"/>
  <path d="M22.9794 6.96477C23.0347 6.95832 23.173 6.96977 23.2289 6.97986C23.4845 7.02637 23.7107 7.17356 23.8568 7.38838C24.1048 7.75549 24.0897 8.20987 23.8224 8.56342C23.4479 9.05876 23.0635 9.54693 22.682 10.037L20.5106 12.8288L18.0439 15.9997C17.6424 16.5156 17.2409 17.0378 16.836 17.5512C16.7421 17.6607 16.6397 17.771 16.5165 17.8469C16.1233 18.0893 15.5862 18.0415 15.28 17.6805C15.0944 17.4616 14.9499 17.2253 14.7927 16.9895L14.0557 15.8838L12.6706 13.8095C12.44 13.4631 12.1531 13.0554 11.9405 12.7034C11.8088 12.8901 11.626 13.1139 11.4844 13.2968L10.635 14.3916L8.08504 17.6663L6.57624 19.6034C6.47559 19.7328 6.37295 19.8662 6.27259 19.9954C5.894 20.4831 5.71831 20.8117 5.09109 20.9563C4.98043 20.9601 4.88897 20.9663 4.78004 20.939C4.21326 20.7965 3.90333 20.264 4.04167 19.7051C4.07316 19.5764 4.12958 19.455 4.20769 19.348C4.59048 18.8241 5.07025 18.2368 5.47286 17.7192L7.95982 14.5222L10.0533 11.8296C10.419 11.3588 10.7861 10.8822 11.1569 10.4151C11.2407 10.3203 11.344 10.1995 11.4561 10.139C11.8416 9.9308 12.4228 9.96436 12.714 10.3183C12.9081 10.5544 13.066 10.807 13.2322 11.0566L14.0211 12.2388L15.3575 14.2427C15.5757 14.5706 15.8614 14.9757 16.0594 15.3097C16.3001 14.9632 16.6594 14.525 16.9225 14.186L18.5674 12.0715L21.0258 8.91436C21.4161 8.41342 21.806 7.91055 22.1963 7.40959C22.419 7.12363 22.6213 7.00132 22.9794 6.96477Z" fill="#CECAB5"/>
</svg>
