<svg xmlns="http://www.w3.org/2000/svg" width="20" height="20" viewBox="0 0 24 24" fill="none" aria-hidden="true">
  <path d="M11.7 3.6c.4 2 1.2 3.4 2.4 4.6 1.2 1.2 2.6 2 4.6 2.4-2 .4-3.4 1.2-4.6 2.4-1.2 1.2-2 2.6-2.4 4.6-.4-2-1.2-3.4-2.4-4.6-1.2-1.2-2.6-2-4.6-2.4 2-.4 3.4-1.2 4.6-2.4 1.2-1.2 2-2.6 2.4-4.6Z" fill="#8A7428"/>
  <path d="M18.1 14c.2 1 .6 1.8 1.2 2.4.6.6 1.4 1 2.4 1.2-1 .2-1.8.6-2.4 1.2-.6.6-1 1.4-1.2 2.4-.2-1-.6-1.8-1.2-2.4-.6-.6-1.4-1-2.4-1.2 1-.2 1.8-.6 2.4-1.2.6-.6 1-1.4 1.2-2.4Z" fill="#8A7428"/>
</svg>
